<svg xmlns="http://www.w3.org/2000/svg" id="Capa_1" style="enable-background:new 0 0 512 512;" viewBox="0 0 512 512" x="0px" y="0px" version="1.1" xmlns:xlink="http://www.w3.org/1999/xlink" xmlns:xml="http://www.w3.org/XML/1998/namespace" xml:space="preserve">
<g>
	<g>
		<path style="fill: #86c232;" d="M 482 287 c 0 -24.813 -20.187 -45 -45 -45 h -66.833 c 8.28 -22.387 13.415 -48.978 16.417 -69.121 c 3.032 -20.334 -2.919 -40.917 -16.327 -56.473 C 356.889 100.896 337.477 92 317 92 c -8.284 0 -15 6.716 -15 15 c 0 36.237 -20.825 90.941 -45.128 103.126 c -27.356 13.713 -81.172 28.91 -91.891 31.874 c -6.692 0 -143.512 0 -149.98 0 c -8.284 0 -15 6.716 -15 15 v 210 c -0.001 8.284 6.715 15 14.999 15 h 45 v 15 c 0 8.284 6.716 15 15 15 h 62 c 18.321 0 34.108 -11.011 41.122 -26.758 l 105.24 26.31 c 1.19 0.297 2.412 0.448 3.638 0.448 h 90 c 24.813 0 45 -20.187 45 -45 c 0 -5.852 -1.123 -11.446 -3.164 -16.579 C 437.924 445.211 452 427.718 452 407 c 0 -5.852 -1.123 -11.446 -3.164 -16.579 C 467.924 385.211 482 367.718 482 347 c 0 -11.515 -4.347 -22.033 -11.486 -30 C 477.653 309.033 482 298.515 482 287 Z M 59.999 452 h -30 V 272 h 30 V 452 Z M 151.999 467 c 0 8.271 -6.729 15 -15 15 h -47 V 272 h 62 V 467 Z M 347 332 h 90 c 8.271 0 15 6.729 15 15 s -6.729 15 -15 15 c -11.31 0 -80.756 0 -90 0 c -8.284 0 -15 6.716 -15 15 s 6.716 15 15 15 h 60 c 8.271 0 15 6.729 15 15 s -6.729 15 -15 15 c -6.359 0 -53.641 0 -60 0 c -8.284 0 -15 6.716 -15 15 s 6.716 15 15 15 h 30 c 8.271 0 15 6.729 15 15 s -6.729 15 -15 15 h -88.153 l -106.847 -26.711 V 268.376 c 20.238 -5.811 63.165 -18.822 88.316 -31.431 c 34.45 -17.271 55.545 -71.899 60.535 -112.494 c 6.381 2.334 12.141 6.272 16.684 11.542 c 7.704 8.937 11.122 20.769 9.378 32.462 c -7.105 47.654 -16.018 67.215 -23.329 81.836 c -2.325 4.65 -2.077 10.172 0.656 14.594 c 2.733 4.422 7.561 7.115 12.76 7.115 h 90 c 8.271 0 15 6.729 15 15 s -6.729 15 -15 15 h -90 c -8.284 0 -15 6.716 -15 15 S 338.716 332 347 332 Z" />
	</g>
</g>
<g>
	<g>
		<path style="fill: #86c232;" d="M 332 0 c -8.284 0 -15 6.716 -15 15 v 32 c 0 8.284 6.716 15 15 15 s 15 -6.716 15 -15 V 15 C 347 6.716 340.284 0 332 0 Z" />
	</g>
</g>
<g>
	<g>
		<path style="fill: #86c232;" d="M 247.147 75.934 l -21.213 -21.213 c -5.857 -5.858 -15.355 -5.858 -21.213 0 c -5.858 5.858 -5.858 15.355 0 21.213 l 21.213 21.213 c 5.857 5.858 15.356 5.858 21.213 0 C 253.005 91.289 253.005 81.792 247.147 75.934 Z" />
	</g>
</g>
<g>
	<g>
		<path style="fill: #86c232;" d="M 196.999 167 h -30 c -8.284 0 -15 6.716 -15 15 s 6.716 15 15 15 h 30 c 8.284 0 15 -6.716 15 -15 S 205.283 167 196.999 167 Z" />
	</g>
</g>
<g>
	<g>
		<path style="fill: #86c232;" d="M 497 167 h -30 c -8.284 0 -15 6.716 -15 15 s 6.716 15 15 15 h 30 c 8.284 0 15 -6.716 15 -15 S 505.284 167 497 167 Z" />
	</g>
</g>
<g>
	<g>
		<path style="fill: #86c232;" d="M 459.279 54.721 c -5.857 -5.858 -15.355 -5.858 -21.213 0 l -21.213 21.213 c -5.858 5.858 -5.858 15.355 0 21.213 c 5.857 5.858 15.356 5.858 21.213 0 l 21.213 -21.213 C 465.137 70.076 465.137 60.579 459.279 54.721 Z" />
	</g>
</g>
<g>
</g>
<g>
</g>
<g>
</g>
<g>
</g>
<g>
</g>
<g>
</g>
<g>
</g>
<g>
</g>
<g>
</g>
<g>
</g>
<g>
</g>
<g>
</g>
<g>
</g>
<g>
</g>
<g>
</g>
</svg>